<svg width="544" height="850" viewBox="0 0 544 850" fill="none" xmlns="http://www.w3.org/2000/svg">
<circle cx="5" cy="5" r="5" fill="white"/>
<circle cx="5" cy="75" r="5" fill="white"/>
<circle cx="5" cy="145" r="5" fill="white"/>
<circle cx="5" cy="215" r="5" fill="white"/>
<circle cx="5" cy="285" r="5" fill="white"/>
<circle cx="5" cy="355" r="5" fill="white"/>
<circle cx="5" cy="425" r="5" fill="white"/>
<circle cx="5" cy="495" r="5" fill="white"/>
<circle cx="5" cy="565" r="5" fill="white"/>
<circle cx="5" cy="635" r="5" fill="white"/>
<circle cx="5" cy="705" r="5" fill="white"/>
<circle cx="5" cy="775" r="5" fill="white"/>
<circle cx="5" cy="845" r="5" fill="white"/>
<circle cx="94" cy="5" r="5" fill="white"/>
<circle cx="94" cy="75" r="5" fill="white"/>
<circle cx="94" cy="145" r="5" fill="white"/>
<circle cx="94" cy="215" r="5" fill="white"/>
<circle cx="94" cy="285" r="5" fill="white"/>
<circle cx="94" cy="355" r="5" fill="white"/>
<circle cx="94" cy="425" r="5" fill="white"/>
<circle cx="94" cy="495" r="5" fill="white"/>
<circle cx="94" cy="565" r="5" fill="white"/>
<circle cx="94" cy="635" r="5" fill="white"/>
<circle cx="94" cy="705" r="5" fill="white"/>
<circle cx="94" cy="775" r="5" fill="white"/>
<circle cx="94" cy="845" r="5" fill="white"/>
<circle cx="183" cy="5" r="5" fill="white"/>
<circle cx="183" cy="75" r="5" fill="white"/>
<circle cx="183" cy="145" r="5" fill="white"/>
<circle cx="183" cy="215" r="5" fill="white"/>
<circle cx="183" cy="285" r="5" fill="white"/>
<circle cx="183" cy="355" r="5" fill="white"/>
<circle cx="183" cy="425" r="5" fill="white"/>
<circle cx="183" cy="495" r="5" fill="white"/>
<circle cx="183" cy="565" r="5" fill="white"/>
<circle cx="183" cy="635" r="5" fill="white"/>
<circle cx="183" cy="705" r="5" fill="white"/>
<circle cx="183" cy="775" r="5" fill="white"/>
<circle cx="183" cy="845" r="5" fill="white"/>
<circle cx="272" cy="5" r="5" fill="white"/>
<circle cx="272" cy="75" r="5" fill="white"/>
<circle cx="272" cy="145" r="5" fill="white"/>
<circle cx="272" cy="215" r="5" fill="white"/>
<circle cx="272" cy="285" r="5" fill="white"/>
<circle cx="272" cy="355" r="5" fill="white"/>
<circle cx="272" cy="425" r="5" fill="white"/>
<circle cx="272" cy="495" r="5" fill="white"/>
<circle cx="272" cy="565" r="5" fill="white"/>
<circle cx="272" cy="635" r="5" fill="white"/>
<circle cx="272" cy="705" r="5" fill="white"/>
<circle cx="272" cy="775" r="5" fill="white"/>
<circle cx="272" cy="845" r="5" fill="white"/>
<circle cx="361" cy="5" r="5" fill="white"/>
<circle cx="361" cy="75" r="5" fill="white"/>
<circle cx="361" cy="145" r="5" fill="white"/>
<circle cx="361" cy="215" r="5" fill="white"/>
<circle cx="361" cy="285" r="5" fill="white"/>
<circle cx="361" cy="355" r="5" fill="white"/>
<circle cx="361" cy="425" r="5" fill="white"/>
<circle cx="361" cy="495" r="5" fill="white"/>
<circle cx="361" cy="565" r="5" fill="white"/>
<circle cx="361" cy="635" r="5" fill="white"/>
<circle cx="361" cy="705" r="5" fill="white"/>
<circle cx="361" cy="775" r="5" fill="white"/>
<circle cx="361" cy="845" r="5" fill="white"/>
<circle cx="450" cy="5" r="5" fill="white"/>
<circle cx="450" cy="75" r="5" fill="white"/>
<circle cx="450" cy="145" r="5" fill="white"/>
<circle cx="450" cy="215" r="5" fill="white"/>
<circle cx="450" cy="285" r="5" fill="white"/>
<circle cx="450" cy="355" r="5" fill="white"/>
<circle cx="450" cy="425" r="5" fill="white"/>
<circle cx="450" cy="495" r="5" fill="white"/>
<circle cx="450" cy="565" r="5" fill="white"/>
<circle cx="450" cy="635" r="5" fill="white"/>
<circle cx="450" cy="705" r="5" fill="white"/>
<circle cx="450" cy="775" r="5" fill="white"/>
<circle cx="450" cy="845" r="5" fill="white"/>
<circle cx="539" cy="5" r="5" fill="white"/>
<circle cx="539" cy="75" r="5" fill="white"/>
<circle cx="539" cy="145" r="5" fill="white"/>
<circle cx="539" cy="215" r="5" fill="white"/>
<circle cx="539" cy="285" r="5" fill="white"/>
<circle cx="539" cy="355" r="5" fill="white"/>
<circle cx="539" cy="425" r="5" fill="white"/>
<circle cx="539" cy="495" r="5" fill="white"/>
<circle cx="539" cy="565" r="5" fill="white"/>
<circle cx="539" cy="635" r="5" fill="white"/>
<circle cx="539" cy="705" r="5" fill="white"/>
<circle cx="539" cy="775" r="5" fill="white"/>
<circle cx="539" cy="845" r="5" fill="white"/>
</svg>
